<svg width="31" height="36" viewBox="0 0 31 36" fill="none" xmlns="http://www.w3.org/2000/svg">
<g clip-path="url(#clip0_81_315)">
<path d="M13.0001 30.3165C12.6683 31.387 11.6653 32.1578 10.4907 32.1578H7.96947C4.9125 32.1578 2.42188 29.6957 2.42188 26.6433V15.1932V15.1814L2.42215 15.1697C2.45231 13.8875 3.06106 12.6891 4.07634 11.904L12.6331 5.05468C14.4783 3.47894 17.192 3.4338 19.0894 4.94894C19.0899 4.94934 19.0904 4.94975 19.0909 4.95015L27.865 11.9067L27.8739 11.9137L27.8826 11.9209C28.8568 12.7299 29.4219 13.9279 29.4219 15.1932V26.655C29.4219 28.1193 28.8349 29.5219 27.7928 30.5537C26.7514 31.5849 25.341 32.1612 23.8733 32.1578M13.0001 30.3165L23.8743 31.1578M13.0001 30.3165L13.1518 30.2663V29.5438V25.5205C13.1518 25.0526 13.5359 24.6609 14.0251 24.6609H17.8069C18.0408 24.6609 18.2637 24.7532 18.4269 24.9152C18.5899 25.077 18.6801 25.2949 18.6801 25.5205V29.5405L13.0001 30.3165ZM23.8733 32.1578C23.8728 32.1578 23.8722 32.1578 23.8717 32.1578L23.8743 31.1578M23.8733 32.1578H23.8743V31.1578M23.8733 32.1578H21.2942C20.5999 32.1578 19.9329 31.8828 19.4416 31.3915L20.1487 30.6844C20.4517 30.9874 20.864 31.1578 21.2942 31.1578H23.8743" stroke="#E6E6E6" stroke-width="2"/>
</g>
<defs>
<clipPath id="clip0_81_315">
<rect width="30" height="36" fill="white" transform="translate(0.921875)"/>
</clipPath>
</defs>
</svg>
